<?xml version="1.0" standalone="no"?>
<!DOCTYPE svg PUBLIC "-//W3C//DTD SVG 20010904//EN"
 "http://www.w3.org/TR/2001/REC-SVG-20010904/DTD/svg10.dtd">
<svg version="1.0" xmlns="http://www.w3.org/2000/svg"
 width="128.000000pt" height="128.000000pt" viewBox="0 0 128.000000 128.000000"
 preserveAspectRatio="xMidYMid meet">
<metadata>
Created by potrace 1.14, written by Peter Selinger 2001-2017
</metadata>
<g transform="translate(0.000000,128.000000) scale(0.100000,-0.100000)"
fill="#000000" stroke="none">
<path d="M0 640 l0 -640 640 0 640 0 0 640 0 640 -640 0 -640 0 0 -640z m870
0 l0 -180 -35 0 c-19 0 -35 5 -35 11 0 8 -4 8 -14 0 -8 -7 -28 -13 -45 -13
-68 -2 -108 61 -98 155 4 41 10 56 37 80 32 29 57 32 103 12 15 -6 17 0 17 54
l0 61 35 0 35 0 0 -180z m-480 130 c0 -29 -1 -30 -50 -30 l-50 0 0 -140 0
-140 -40 0 -40 0 0 140 0 140 -50 0 c-49 0 -50 1 -50 30 l0 30 140 0 140 0 0
-30z m155 -64 c47 -20 68 -65 63 -133 -5 -62 -32 -98 -85 -112 -76 -21 -143
26 -150 106 -7 65 15 114 58 136 42 20 70 21 114 3z m572 -18 c62 -63 44 -192
-32 -224 -44 -18 -69 -18 -111 2 -43 21 -64 59 -64 119 0 91 48 138 133 132
35 -3 56 -11 74 -29z"/>
<path d="M729 643 c-20 -23 -18 -98 3 -119 14 -15 22 -16 43 -6 22 10 25 18
25 65 0 29 -5 58 -12 65 -17 17 -43 15 -59 -5z"/>
<path d="M461 646 c-19 -22 -23 -78 -9 -106 28 -54 88 -23 88 45 0 58 -50 96
-79 61z"/>
<path d="M1002 648 c-13 -13 -16 -85 -6 -112 7 -19 59 -22 70 -4 12 19 8 96
-6 112 -15 19 -41 21 -58 4z"/>
</g>
</svg>
